<svg xmlns="http://www.w3.org/2000/svg" width="35" height="35" viewBox="0 0 35 35">
  <g fill="none" fill-rule="evenodd">
    <rect width="35" height="35" fill="#EB3349" rx="3"/>
    <g fill="#FFFFFF" transform="translate(7.656 10.938)">
      <polygon points="8.84 12.867 3.51 4.452 3.454 4.452 3.529 12.867 .424 12.867 .424 0 4.071 0 9.383 8.396 9.439 8.396 9.364 0 12.469 0 12.469 12.867"/>
      <path d="M16.4400469,12.8665385 L13.5784687,7.75990385 L12.4936875,7.75990385 L12.4936875,12.8665385 L9.3515625,12.8665385 L9.3515625,0 L14.4014063,0 C15.0373157,0 15.6576298,0.0636051332 16.2623672,0.190817308 C16.8671046,0.318029482 17.4094898,0.533075409 17.8895391,0.835961538 C18.3695883,1.13884767 18.7529986,1.53865136 19.0397813,2.03538462 C19.3265639,2.53211787 19.4699531,3.1499963 19.4699531,3.88903846 C19.4699531,4.76135052 19.2268149,5.49432395 18.7405313,6.08798077 C18.2542476,6.68163758 17.5809418,7.1056718 16.7205937,7.36009615 L20.1806719,12.8665385 L16.4400469,12.8665385 Z M16.309125,3.94355769 C16.309125,3.64067156 16.2436647,3.39533748 16.1127422,3.20754808 C15.9818197,3.01975868 15.8134932,2.87437551 15.6077578,2.77139423 C15.4020224,2.66841295 15.1713528,2.59875018 14.9157422,2.56240385 C14.6601315,2.52605751 14.4138762,2.50788462 14.1769688,2.50788462 L12.4749844,2.50788462 L12.4749844,5.50644231 L13.9899375,5.50644231 C14.2517826,5.50644231 14.519858,5.4852406 14.7941719,5.44283654 C15.0684857,5.40043248 15.3178583,5.32471208 15.5422969,5.21567308 C15.7667355,5.10663407 15.9506477,4.94913565 16.0940391,4.74317308 C16.2374304,4.53721051 16.309125,4.27067471 16.309125,3.94355769 Z"/>
    </g>
  </g>
</svg>
