<svg xmlns="http://www.w3.org/2000/svg" width="194.741" height="134.125" viewBox="0 0 194.741 134.125"><path fill="#333" d="M106.856 70.886h-.645v-13.54h.646v13.54M153.47 27.728h-.643v-7.093h.644v7.093M92.856 32.886h-.645v-13.54h.646v13.54M90.278 32.886v-13.54 13.54M25.148 36.11h-.644v-2.578h.644v2.578M8.383 81.894H7.74V79.96h.643v1.934M194.74 107.278l-7.89 9.707 7.89 10.71"/><path fill="#333" d="M15.22 101.383c8.506 0 12.78 4.958 14.727 9.43l-8.457 3.935c-.827-2.527-3.354-4.714-6.27-4.714-4.713 0-7.874 3.596-7.874 8.116s3.16 8.114 7.873 8.114c2.916 0 5.442-2.186 6.27-4.712l8.457 4.005c-1.383 3.154-4.066 6.634-8.713 8.567h10.363v-32.24h9.673v32.24h10.962v-23.857h-8.384v-8.382H70.93v8.382h-9.027v23.857h21.925v-12.67l-12.04-19.57H82.82l6.03 10.935 5.927-10.935h11.03l-12.305 19.57v12.67h13.542v-32.24h17.126c7.58 0 11.665 4.91 11.665 10.985 0 6.026-4.083 10.938-11.665 10.938h-7.455v10.315h14.212l11.793-32.24h12.344l11.795 32.24h2.088v-32.24h9.672v12.184l8.473-12.183h7.648v-41.27h-1.934v-1.288h-5.803v1.29h-4.514v-6.448h-2.582v-1.29h-3.867v1.29h-1.934v6.447h-7.094v1.934h-.645v5.16H162.5v-6.842l-1.493-9.976-.374-9.484-2.233-8.183-5.394-6.137-5.21 6.188-2.23 8.183-.42 9.483-1.346 9.995V3.285L136.793 0l-16.208 1.798v58.73l-1.29 1.336v8.424h-2.367l-.37-7.313-1.304-2.36H112.2v-3.772l-12.896-2.416v10.06H97.37v-17.5l-2.58-.93V33.13l-7.093-.837v12.46L83.83 46.8v26.712h-3.226v-8.674l-10.962-2.975V41.037l-5.804-2.418v-2.977l-5.803-1.115v-2.286h-9.028v1.935h-5.16v36.11H37.4V41.27h-5.804v-3.768l-6.82-1.674-6.076 1.116v4.326h-5.804v41.235L1.29 81.39v8.243H0v19.332c3.083-4.735 8.628-7.582 15.22-7.582zM178.62 125.342v8.783h8.776l-6.993-11.096M0 127.312v6.812h8.72C5.034 132.837 2 130.382 0 127.312z"/><path fill="#333" d="M125.872 112.87c0-1.75-1.312-2.603-2.963-2.603h-6.194v5.16h6.193c1.65 0 2.962-.854 2.962-2.556zM145.685 121.875h6.415l-3.208-10.45M142.03 134.125h13.727l-1.033-3.868H143.06"/><g><path fill="#333" d="M90.6 32.886h-.644v-13.54h.644v13.54"/></g><g><path fill="#333" d="M104.278 70.886v-13.54 13.54"/></g><g><path fill="#333" d="M39.148 74.11h-.644v-2.578h.644v2.578"/></g><g><path fill="#333" d="M22.383 119.894h-.644v-1.934h.643v1.934"/></g></svg>